<svg id="logo" xmlns="http://www.w3.org/2000/svg" width="189.875" height="39" viewBox="0 0 189.875 39">
  <defs>
    <style>
      .cls-1 {
        fill: #fff;
        fill-rule: evenodd;
      }
    </style>
  </defs>
  <path id="Jobhunt" class="cls-1" d="M315,55.085h-4.427c0,5.687,4.391,7.775,7.883,7.775,4.211,0,7.487-2.736,7.487-8.459l0.036-17.458h-4.428V54.4c0,3.312-1.26,4.283-3.275,4.283C316.154,58.684,315,57.244,315,55.085Zm24.083,7.775a9.472,9.472,0,1,0-9.791-9.467A9.4,9.4,0,0,0,339.085,62.86Zm0-4.175a5.291,5.291,0,1,1,5.291-5.291A5.248,5.248,0,0,1,339.085,58.684Zm32.543-5.291c0-5.219-3.815-9.467-9.035-9.467a7.082,7.082,0,0,0-6.551,3.743V35.5h-4.427v27h4.211l0.216-3.383a7.082,7.082,0,0,0,6.551,3.743C367.813,62.86,371.628,58.612,371.628,53.393Zm-4.427,0a5.271,5.271,0,0,1-5.364,5.291,5.291,5.291,0,0,1,0-10.583A5.271,5.271,0,0,1,367.2,53.393Zm18.324-9.467a9.645,9.645,0,0,0-6.767,3.024V35.5h-4.427v27h4.427V53.393c0.108-2.952,1.944-5.291,5.039-5.291,2.448,0,4,1.44,4,5.687V62.5h4.427V51.737C392.22,46.77,389.917,43.926,385.525,43.926Zm23.364,0.36v8.855c0,3.06-1.872,5.543-5.039,5.543-2.448,0-4-1.44-4-5.687V44.286h-4.427V55.049c0,4.967,2.3,7.811,6.695,7.811a9.548,9.548,0,0,0,6.8-3.06l0.216,2.7h4.176V44.286h-4.428Zm19.4-.36a9.616,9.616,0,0,0-6.8,3.06l-0.216-2.7H417.1V62.5h4.427V53.393c0.108-2.952,1.944-5.291,5.04-5.291,2.447,0,4,1.44,4,5.687V62.5h4.428V51.737C434.989,46.77,432.685,43.926,428.293,43.926Zm20.592,0.36h-4.031v-5.4h-4.427v5.4h-2.844v4.176h2.844V62.5h4.427V48.461h4.031V44.286Z" transform="translate(-259 -30)"/>
  <path class="cls-1" d="M264.723,55.225l4.108-4.108,13.776,13.775L278.5,69Zm15.393,3.944,13.776-13.776L298,49.5,284.225,63.277ZM270.449,49.5l8.051-8.051,8.051,8.051L278.5,57.551ZM259,49.5l13.776-13.777,4.108,4.108L263.108,53.607Zm15.393-15.392L278.5,30l13.777,13.776-4.108,4.108Z" transform="translate(-259 -30)"/>
</svg>
